# xmcd
#
# Track frame offsets:
# 150
# 15445
# 27237
# 38227
# 49567
# 63400
# 75030
# 87205
# 96317
# 111210
# 123757
# 135115
# 147092
#
# Disc length: 2153 seconds
#
# Revision: 0
# Processed by: cddbd v1.5.2PL0 Copyright (c) Steve Scherf et al.
# Submitted via: MacMP3 Pro 5.0 (http://mp3.act2.co.jp/)
#
DISCID=9008670d
DTITLE=ç]óòÉ`ÉGÉ~ - ç]óòÉ`ÉGÉ~BestSelection2007
DYEAR=1900
DGENRE=
TTITLE0=ÉeÉlÉVÅ[ÉèÉãÉc
TTITLE1=â?Ç÷Ç®Ç¢Ç?ÇÊ
TTITLE2=ÉrÉrÉfÉBÉoÉrÉfÉBÉuÅ[
TTITLE3=ÉTÉCÉåÉìÉgÉiÉCÉg
TTITLE4=ÉÜÅ[ÉrÉçÉìÉOÉgÉDÅ[É~Å[
TTITLE5=ÉyÅ[ÉpÅ[ÉÄÅ[Éì
TTITLE6=åNïÁÇ§ÉèÉãÉc
TTITLE7=ÉWÉÉÉìÉoÉâÉÑ
TTITLE8=ÉZÉVÉ{Éì
TTITLE9=ÉCÉXÉ^ÉìÉuÅ[ÉãÉ}ÉìÉ{
TTITLE10=É`ÉÉÉ`ÉÉÉ`ÉÉÇÕëfê?ÇÁÇµÇ¢
TTITLE11=ÉçÉbÉNÉAÉâÉEÉìÉhÉUÉNÉçÉbÉN
TTITLE12=Ç?Ç>=ÇµÇ!=à§ÇµÇ?
EXTD=
EXTT0=
EXTT1=
EXTT2=
EXTT3=
EXTT4=
EXTT5=
EXTT6=
EXTT7=
EXTT8=
EXTT9=
EXTT10=
EXTT11=
EXTT12=
PLAYORDER=
